<svg width="128" height="32" viewBox="0 0 128 32" fill="none" xmlns="http://www.w3.org/2000/svg">
<path d="M48.7802 22.224C47.1269 22.224 45.8362 21.7707 44.9082 20.864C43.9802 19.9573 43.5162 18.672 43.5162 17.008V10.8H46.6842V16.912C46.6842 17.872 46.8709 18.56 47.2442 18.976C47.6282 19.392 48.1509 19.6 48.8122 19.6C49.4735 19.6 49.9909 19.392 50.3642 18.976C50.7375 18.56 50.9242 17.872 50.9242 16.912V10.8H54.0442V17.008C54.0442 18.672 53.5802 19.9573 52.6522 20.864C51.7242 21.7707 50.4335 22.224 48.7802 22.224ZM64.1903 22V10.8H67.3583V19.488H72.7023V22H64.1903ZM81.9559 22V10.8H85.1239V19.488H90.4679V22H81.9559ZM102.634 15.136H107.834V17.504H102.634V15.136ZM102.858 19.552H108.714V22H99.7216V10.8H108.506V13.248H102.858V19.552ZM120.856 22V13.312H117.416V10.8H127.448V13.312H124.024V22H120.856Z" fill="white"/>
<path d="M0 9.6C0 4.29807 4.29807 0 9.6 0H22.4C27.7019 0 32 4.29807 32 9.6V13.9334C29.6546 11.276 26.223 9.6 22.4 9.6L0 9.6Z" fill="white"/>
<path fill-rule="evenodd" clip-rule="evenodd" d="M22.4 12.8C27.7019 12.8 32 17.0981 32 22.4C32 27.7019 27.7019 32 22.4 32H9.6C4.29807 32 0 27.7019 0 22.4V12.8H22.4ZM20.8 25.92C22.744 25.92 24.32 24.344 24.32 22.4C24.32 20.456 22.744 18.88 20.8 18.88C18.856 18.88 17.28 20.456 17.28 22.4C17.28 24.344 18.856 25.92 20.8 25.92Z" fill="white"/>
</svg>
